HIERARCHY
ROOT Hips
{
	OFFSET -109.992104 92.699142 431.869385
	CHANNELS 6 Xposition Yposition Zposition Xrotation Yrotation Zrotation 
	JOINT RightUpLeg
	{
		OFFSET 0.103458 1.857831 10.548500
		CHANNELS 3 Xrotation Yrotation Zrotation
		JOINT RightLeg
		{
			OFFSET 43.500000 -0.000027 -0.000013
			CHANNELS 3 Xrotation Yrotation Zrotation
			JOINT RightFoot
			{
				OFFSET 42.372196 0.000031 0.000011
				CHANNELS 3 Xrotation Yrotation Zrotation
				JOINT RightToe
				{
					OFFSET 17.299994 -0.000003 -0.000004
					CHANNELS 3 Xrotation Yrotation Zrotation
					End Site
					{
						OFFSET 0.000000 0.000000 0.000000
					}
				}
			}
		}
	}
	JOINT LeftUpLeg
	{
		OFFSET 0.103455 1.857826 -10.548502
		CHANNELS 3 Xrotation Yrotation Zrotation
		JOINT LeftLeg
		{
			OFFSET 43.500038 -0.000023 0.000010
			CHANNELS 3 Xrotation Yrotation Zrotation
			JOINT LeftFoot
			{
				OFFSET 42.372261 0.000004 0.000006
				CHANNELS 3 Xrotation Yrotation Zrotation
				JOINT LeftToe
				{
					OFFSET 17.299988 -0.000008 0.000010
					CHANNELS 3 Xrotation Yrotation Zrotation
					End Site
					{
						OFFSET 0.000000 0.000000 0.000000
					}
				}
			}
		}
	}
	JOINT Spine
	{
		OFFSET 6.901968 -2.603722 -0.000004
		CHANNELS 3 Xrotation Yrotation Zrotation
		JOINT Spine1
		{
			OFFSET 12.588099 -0.000002 0.000005
			CHANNELS 3 Xrotation Yrotation Zrotation
			JOINT Spine2
			{
				OFFSET 12.343202 -0.000017 -0.000005
				CHANNELS 3 Xrotation Yrotation Zrotation
				JOINT Neck
				{
					OFFSET 25.832903 0.000008 0.000008
					CHANNELS 3 Xrotation Yrotation Zrotation
					JOINT Head
					{
						OFFSET 11.766607 0.000004 -0.000001
						CHANNELS 3 Xrotation Yrotation Zrotation
						End Site
						{
							OFFSET 0.000000 0.000000 0.000000
						}
					}
				}
				JOINT RightShoulder
				{
					OFFSET 19.745907 -1.480366 6.000107
					CHANNELS 3 Xrotation Yrotation Zrotation
					JOINT RightArm
					{
						OFFSET 11.284126 -0.000031 -0.000025
						CHANNELS 3 Xrotation Yrotation Zrotation
						JOINT RightForeArm
						{
							OFFSET 33.000050 0.000011 0.000029
							CHANNELS 3 Xrotation Yrotation Zrotation
							JOINT RightHand
							{
								OFFSET 25.200008 0.000009 0.000011
								CHANNELS 3 Xrotation Yrotation Zrotation
								End Site
								{
									OFFSET 0.000000 0.000000 0.000000
								}
							}
						}
					}
				}
				JOINT LeftShoulder
				{
					OFFSET 19.746094 -1.480364 -6.000070
					CHANNELS 3 Xrotation Yrotation Zrotation
					JOINT LeftArm
					{
						OFFSET 11.284145 -0.000017 -0.000020
						CHANNELS 3 Xrotation Yrotation Zrotation
						JOINT LeftForeArm
						{
							OFFSET 33.000088 0.000019 0.000022
							CHANNELS 3 Xrotation Yrotation Zrotation
							JOINT LeftHand
							{
								OFFSET 25.199780 0.000137 0.000414
								CHANNELS 3 Xrotation Yrotation Zrotation
								End Site
								{
									OFFSET 0.000000 0.000000 0.000000
								}
							}
						}
					}
				}
			}
		}
	}
}
MOTION
Frames: 14
Frame Time: 0.033333
227.153397 88.637367 535.016602 79.513313 0.344223 -2.639038 163.464117 -10.895295 -176.093123 -36.396070 -3.877900 -12.567343 78.182833 7.364404 -6.674220 21.454557 0.003111 0.000018 -177.115275 -3.439407 -167.405928 -29.269693 0.400929 3.469907 95.575916 -2.765189 -3.919233 21.454548 -0.003093 -0.000001 9.131662 -0.982605 -1.412642 8.275124 -1.861725 -2.892208 7.957283 -1.879285 -2.880929 6.260195 2.451043 -17.603979 -8.603073 12.714431 -20.938440 123.559515 -75.302002 56.084510 13.225033 54.030894 38.447920 -41.390376 -20.626304 1.890969 13.407537 3.293208 19.180715 -179.268301 74.047522 2.112206 -21.854585 -54.679223 -18.567432 -63.715461 19.457901 -2.548195 9.779003 9.072567 -20.504966 
226.950897 88.809647 534.244873 79.830240 -0.280603 -6.567994 162.178730 -8.424500 -176.307195 -38.007137 -3.095561 -12.338091 77.597800 7.104634 -6.924295 21.454557 0.003109 0.000018 -176.715258 -3.962493 -169.338531 -28.019051 0.655312 2.233972 94.915369 -2.089775 -4.958670 21.454550 -0.003093 -0.000000 9.065492 -0.756017 -1.175029 8.133775 -1.427618 -2.400383 7.815867 -1.442220 -2.391730 6.203264 1.628865 -17.785652 -8.820407 13.030323 -21.418010 126.095783 -75.103080 53.542932 13.373278 54.160740 38.924702 -44.358694 -20.466051 1.966630 12.354345 0.490520 20.092726 178.672817 74.419310 0.008011 -22.707625 -53.993783 -16.801384 -66.202428 18.613059 -2.588815 8.637613 9.616664 -21.325131 
226.673798 88.897980 533.421326 80.270576 -0.986251 -10.406983 160.981616 -5.992294 -176.369172 -38.364565 -2.392326 -12.013120 77.246496 6.918203 -6.665875 21.454555 0.003109 0.000017 -176.351523 -4.627197 -171.254385 -26.941410 0.845753 1.052344 94.354071 -1.446476 -5.912895 21.454553 -0.003089 -0.000000 9.040449 -0.535852 -0.950931 8.076867 -1.004057 -1.936946 7.758929 -1.015870 -1.930855 5.623934 1.206419 -17.951060 -8.440339 13.005299 -21.579096 127.850104 -75.344097 51.749389 13.360275 54.555132 38.969637 -47.386282 -20.362841 2.053349 10.941562 -2.422377 21.536403 177.379193 74.543926 -1.315088 -23.744335 -53.214977 -15.135289 -68.222443 17.770948 -2.612175 7.662630 10.109500 -21.766194 
226.286301 88.918861 532.565186 80.783400 -1.601347 -14.150025 159.787973 -3.521606 -176.058808 -37.781676 -1.778203 -11.382183 76.949540 6.622662 -6.005494 21.454557 0.003109 0.000017 -176.006694 -5.164306 -173.010399 -26.137522 1.060670 -0.174952 93.961130 -0.767141 -6.825859 21.454548 -0.003092 0.000000 9.037759 -0.349146 -0.739639 8.067055 -0.645900 -1.501785 7.749039 -0.655094 -1.497864 5.125512 0.765718 -18.164724 -8.213287 13.118722 -21.862788 129.956602 -75.463980 49.609853 13.361698 54.679230 38.525313 -50.271637 -20.209375 2.137267 9.684762 -4.869813 22.469550 176.895998 74.704074 -1.806300 -24.851536 -52.534035 -13.815137 -69.559855 17.087690 -2.619399 7.620129 10.296821 -21.449997 
225.774002 88.902367 531.660278 81.324494 -2.059406 -17.671996 158.702382 -1.029494 -174.373241 -36.394731 -1.922287 -10.646005 76.666531 6.154122 -5.783356 21.454557 0.003108 0.000017 -175.612414 -5.553608 -174.798912 -25.487339 1.386929 -1.272134 93.686816 -0.174365 -7.732076 21.454550 -0.003095 -0.000001 9.030165 -0.217457 -0.569405 8.049515 -0.394785 -1.152522 7.731478 -0.401877 -1.150126 5.236689 0.662055 -18.395538 -8.453817 13.178122 -22.178664 131.261701 -75.549043 48.282597 13.652424 54.724647 38.017933 -52.747246 -19.944952 2.203928 8.855538 -6.692137 22.419281 176.422693 74.914232 -2.285717 -25.834957 -52.216100 -13.069470 -69.783066 16.988373 -2.621679 7.668534 10.708079 -21.905798 
225.206894 88.948753 530.659790 81.823972 -2.214748 -21.154052 158.059580 1.575502 -172.319567 -33.553267 -2.471614 -10.280970 75.741996 5.967239 -5.472177 21.454558 0.003110 0.000018 -175.124138 -5.756497 -176.815320 -24.751982 1.655739 -2.151417 93.356829 0.276166 -8.571413 21.454553 -0.003093 0.000000 9.011466 -0.180433 -0.405599 8.011336 -0.332345 -0.822690 7.693237 -0.337435 -0.820671 5.673104 0.719581 -18.516173 -8.746916 13.193835 -22.360532 131.770660 -75.637720 47.760101 13.912181 54.717281 37.671106 -54.487226 -19.679071 2.247186 8.836850 -7.260274 21.997259 175.693106 75.091325 -3.028009 -26.325581 -52.132928 -13.131242 -69.169777 17.292051 -2.617600 7.136756 11.684900 -20.532944 
224.549194 88.937271 529.622070 82.276589 -2.272440 -24.673947 157.620071 3.867494 -170.750139 -30.189235 -2.761038 -9.512571 75.066231 4.753016 -7.871846 21.454558 0.003112 0.000019 -174.767834 -5.793897 -178.171891 -24.534466 1.666721 -3.327830 93.234179 0.949578 -9.369893 21.454553 -0.003093 -0.000000 8.997171 -0.190948 -0.200782 7.982186 -0.367553 -0.414225 7.664086 -0.370184 -0.412008 6.122716 0.641042 -18.600512 -8.817474 13.335399 -22.536870 131.118486 -75.484826 48.433032 14.526631 54.426919 37.535609 -55.750022 -19.353003 2.270410 8.879856 -7.104645 21.580638 175.064961 75.170528 -3.668824 -26.133028 -52.200622 -14.255213 -67.571075 17.928673 -2.596544 6.587314 12.815911 -17.520615 
223.802399 88.833572 528.517090 82.776032 -2.323506 -28.237061 157.372722 5.662007 -169.292468 -26.421376 -3.279092 -8.430894 74.075656 3.106990 -10.791412 21.454557 0.003114 0.000020 -174.570565 -5.764493 -178.882873 -24.789367 1.522620 -4.840683 93.323976 1.859704 -10.217109 21.454550 -0.003096 -0.000001 9.003051 -0.223926 0.007117 7.993326 -0.447755 -0.001226 7.675201 -0.447889 0.001474 5.964959 0.512415 -18.612209 -8.518640 13.357732 -22.527101 131.197252 -75.581391 48.345097 14.678389 54.018761 37.706541 -56.187387 -19.332517 2.284919 8.804056 -6.550752 21.311102 174.665518 75.283431 -4.074384 -25.982250 -52.426114 -16.223306 -64.608576 18.966561 -2.549437 6.241616 14.507310 -14.053930 
222.993805 88.672707 527.336914 83.260313 -2.346974 -31.765991 157.069585 6.987398 -169.260475 -23.651425 -3.522478 -7.300509 73.552251 1.548458 -13.172231 21.454560 0.003110 0.000016 -174.349007 -5.715306 -179.527971 -25.190334 1.347885 -6.305500 93.546599 2.750229 -11.059091 21.454551 -0.003095 0.000000 9.017674 -0.275090 0.178708 8.021761 -0.561833 0.337945 7.703651 -0.559914 0.341323 5.560511 -0.047183 -18.438777 -8.045798 13.646205 -22.459146 132.224976 -75.682348 47.296864 14.651825 53.273498 38.275332 -55.900840 -19.343362 2.275217 9.082501 -6.113061 21.425667 173.356294 75.585865 -5.404781 -25.546916 -52.912086 -18.655002 -60.665139 20.143201 -2.476650 7.278081 15.832513 -9.763392 
222.106995 88.414581 526.013184 83.792126 -2.498438 -35.220946 156.763674 7.882201 -169.347205 -22.371386 -3.854520 -6.856675 72.859882 1.135319 -13.248559 21.454558 0.003106 0.000015 -173.951490 -5.899704 -179.999609 -25.598014 1.022750 -7.692161 93.858110 3.587499 -11.994318 21.454555 -0.003089 -0.000000 9.021380 -0.307599 0.323751 8.028285 -0.636817 0.625419 7.710187 -0.633167 0.629242 5.315881 -0.995508 -18.086619 -7.723603 14.200450 -22.403301 133.315075 -75.694608 46.192621 14.909511 52.436926 39.021065 -55.209283 -19.227029 2.242325 9.134867 -5.335247 21.427881 170.863507 76.109740 -7.935302 -24.709072 -53.721494 -21.365090 -55.900515 21.208460 -2.371595 9.416506 16.742561 -5.638224 
221.190002 88.142387 524.539673 84.309799 -2.668078 -38.588991 156.563522 8.312300 -169.370974 -22.897343 -4.072520 -6.576446 72.652640 0.398054 -14.922652 21.454560 0.003105 0.000015 -173.338453 -6.069901 179.354634 -25.878888 0.901269 -8.898370 94.041507 4.273312 -13.069168 21.454553 -0.003089 -0.000000 9.019314 -0.381035 0.481719 8.022734 -0.794437 0.935902 7.704640 -0.788910 0.940682 5.040295 -1.477650 -17.846907 -7.631523 14.269461 -22.264690 133.388007 -75.697894 46.118578 15.357556 51.633129 40.114579 -54.143685 -19.273773 2.207468 9.675233 -4.761815 21.671229 170.370395 76.439912 -8.427015 -23.754804 -54.574844 -24.336295 -50.073179 21.766939 -2.205899 10.413939 16.529760 -1.355232 
220.197906 87.838379 522.968384 84.766630 -2.732827 -42.052976 156.935016 7.969103 -170.183671 -23.723790 -4.623989 -5.069689 71.034650 -1.261529 -15.905993 21.454557 0.003102 0.000014 -172.620983 -5.931699 178.222749 -26.180991 1.146943 -9.955203 94.345205 4.868471 -14.138462 21.454553 -0.003094 -0.000000 9.011268 -0.516298 0.627455 8.004322 -1.074624 1.217785 7.686235 -1.067396 1.224249 4.851588 -1.981884 -17.407123 -7.984835 14.382328 -22.021920 134.048582 -75.638656 45.454745 15.659430 50.689624 41.223494 -52.397728 -19.370227 2.152995 10.175083 -4.087726 21.379616 169.567752 76.460163 -9.245736 -21.851283 -55.132843 -27.401587 -44.721353 21.633753 -2.026549 12.302861 15.436093 1.162168 
219.205704 87.725754 521.367493 84.999259 -2.285757 -45.454957 157.629619 8.299505 -172.243683 -24.388048 -4.342054 -3.886612 70.981279 0.509384 -7.714925 21.454562 0.003112 0.000017 -172.139892 -5.234892 178.453309 -26.585487 0.750912 -11.639901 94.407503 5.923602 -14.872652 21.454551 -0.003095 0.000000 8.960110 -0.766830 0.688220 7.898994 -1.578690 1.322668 7.580868 -1.570817 1.332171 4.454736 -2.646014 -16.796087 -8.244685 14.582170 -21.651584 135.474698 -75.872562 43.991285 15.926738 50.070430 42.201837 -50.746813 -19.597805 2.112096 10.994242 -2.830699 20.929853 169.016391 76.690498 -9.799731 -19.531991 -55.905440 -30.157546 -40.172827 21.053264 -1.857641 13.029560 14.817199 1.884000 
218.029404 87.819397 519.717712 84.817890 -1.452452 -48.792973 159.290106 8.830507 -172.815889 -22.641935 -4.427818 -6.751791 71.940006 4.765105 -0.893086 21.454558 0.003107 0.000016 -171.793697 -3.922700 178.746747 -27.260946 0.261770 -13.190243 94.000902 6.852146 -15.474719 21.454553 -0.003094 -0.000000 8.864104 -1.145302 0.677662 7.703944 -2.333010 1.277932 7.385633 -2.325380 1.292007 4.428219 -3.523670 -16.097492 -8.647852 14.786279 -21.279507 138.592092 -75.861149 40.833337 16.547837 49.247556 42.329346 -49.729515 -19.692013 2.084506 12.037643 -1.169128 22.234001 168.481588 76.820497 -10.340319 -16.382518 -56.537147 -33.389714 -36.152902 20.187700 -1.697691 13.870491 13.510264 2.005349 
